HIERARCHY
ROOT joint_Root
{
	OFFSET 0.0 0.0 0.0
	CHANNELS 6 Xposition Yposition Zposition Zrotation Xrotation Yrotation 
	JOINT Hips
	{
		OFFSET -0.726466 93.3139 -2.00062
		CHANNELS 6 Xposition Yposition Zposition Zrotation Xrotation Yrotation 
		JOINT Spine
		{
			OFFSET 15.7357 0.0 0.0
			CHANNELS 6 Xposition Yposition Zposition Zrotation Xrotation Yrotation 
			JOINT Chest
			{
				OFFSET 8.98455 -0.406207 0.0
				CHANNELS 6 Xposition Yposition Zposition Zrotation Xrotation Yrotation 
				JOINT Neck
				{
					OFFSET 16.3773 0.0 0.0
					CHANNELS 6 Xposition Yposition Zposition Zrotation Xrotation Yrotation 
					JOINT Head
					{
						OFFSET 6.45672 0.0 0.0
						CHANNELS 6 Xposition Yposition Zposition Zrotation Xrotation Yrotation 
						End Site
						{
							OFFSET 0.0 0.0 0.0
						}
					}
				}
				JOINT Shoulder_L
				{
					OFFSET 12.9942 -0.242716 4.98039
					CHANNELS 6 Xposition Yposition Zposition Zrotation Xrotation Yrotation 
					JOINT UpperArm_L
					{
						OFFSET 5.34809 0.0 0.0
						CHANNELS 6 Xposition Yposition Zposition Zrotation Xrotation Yrotation 
						JOINT LowerArm_L
						{
							OFFSET 24.3286 1.87007e-05 0.0
							CHANNELS 6 Xposition Yposition Zposition Zrotation Xrotation Yrotation 
							JOINT Hand_L
							{
								OFFSET 22.2916 0.0 0.0
								CHANNELS 6 Xposition Yposition Zposition Zrotation Xrotation Yrotation 
								End Site
								{
									OFFSET 0.0 0.0 0.0
								}
							}
						}
					}
				}
				JOINT Shoulder_R
				{
					OFFSET 12.9945 -0.242716 -4.98039
					CHANNELS 6 Xposition Yposition Zposition Zrotation Xrotation Yrotation 
					JOINT UpperArm_R
					{
						OFFSET -5.34813 0.0 0.0
						CHANNELS 6 Xposition Yposition Zposition Zrotation Xrotation Yrotation 
						JOINT LowerArm_R
						{
							OFFSET -24.3289 0.000322201 0.0
							CHANNELS 6 Xposition Yposition Zposition Zrotation Xrotation Yrotation 
							JOINT Hand_R
							{
								OFFSET -22.2915 -0.000108084 0.0
								CHANNELS 6 Xposition Yposition Zposition Zrotation Xrotation Yrotation 
								End Site
								{
									OFFSET 0.0 0.0 0.0
								}
							}
						}
					}
				}
			}
		}
		JOINT UpperLeg_L
		{
			OFFSET -2.19248 -6.46944 0.0
			CHANNELS 6 Xposition Yposition Zposition Zrotation Xrotation Yrotation 
			JOINT LowerLeg_L
			{
				OFFSET 39.0811 0.0 -1.23785e-05
				CHANNELS 6 Xposition Yposition Zposition Zrotation Xrotation Yrotation 
				JOINT Foot_L
				{
					OFFSET 40.9854 0.0 -1.26872e-05
					CHANNELS 6 Xposition Yposition Zposition Zrotation Xrotation Yrotation 
					JOINT Toes_L
					{
						OFFSET 11.7543 0.0 0.0
						CHANNELS 6 Xposition Yposition Zposition Zrotation Xrotation Yrotation 
						End Site
						{
							OFFSET 0.0 0.0 0.0
						}
					}
				}
			}
		}
		JOINT UpperLeg_R
		{
			OFFSET -2.19251 6.46944 0.0
			CHANNELS 6 Xposition Yposition Zposition Zrotation Xrotation Yrotation 
			JOINT LowerLeg_R
			{
				OFFSET -39.0811 -0.00228153 -0.0401928
				CHANNELS 6 Xposition Yposition Zposition Zrotation Xrotation Yrotation 
				JOINT Foot_R
				{
					OFFSET -40.9854 0.0 0.0
					CHANNELS 6 Xposition Yposition Zposition Zrotation Xrotation Yrotation 
					JOINT Toes_R
					{
						OFFSET -11.7543 0.0 0.0
						CHANNELS 6 Xposition Yposition Zposition Zrotation Xrotation Yrotation 
						End Site
						{
							OFFSET 0.0 0.0 0.0
						}
					}
				}
			}
		}
	}
}
MOTION
Frames:	7
Frame Time:	0.0333333
0.000000 0.000000 0.000000 0.000000 0.000000 -0.000000 4.716410 91.829300 -421.467000 87.152000 -1.487420 4.342100 15.735700 0.000005 -0.000001 75.060900 83.411500 -73.657100 8.984550 -0.406207 -0.000000 5.016340 -3.423790 2.955090 16.377300 -0.000001 -0.000001 1.758790 -1.757530 -0.310508 6.456720 -0.000001 -0.000000 1.550250 0.259161 -2.099940 12.994200 -0.242716 4.980390 -89.502200 -1.596040 -72.674900 5.348090 -0.000007 -0.000001 -61.983500 36.254100 -25.359100 24.328600 0.000019 0.000005 1.014580 1.661070 -31.427400 22.291600 -0.000001 0.000005 8.902130 5.518170 -7.284180 12.994500 -0.242716 -4.980390 88.803800 3.508350 -71.159300 -5.348130 -0.000001 -0.000004 -70.776300 26.545500 -4.425390 -24.328900 0.000322 -0.000009 2.131200 9.526130 -12.679700 -22.291500 -0.000108 -0.000004 7.832100 5.371720 -2.038190 -2.192480 -6.469440 -0.000000 -178.293000 -2.369900 -0.148933 39.081100 -0.000007 -0.000012 -0.156631 0.352435 23.961700 40.985400 -0.000006 -0.000013 1.788950 -1.810140 -69.825900 11.754300 -0.000000 0.000003 -0.000035 -0.000416 -16.593800 -2.192510 6.469440 -0.000001 -178.788000 14.255400 158.961000 -39.081100 -0.002282 -0.040193 0.077699 -0.044396 59.206200 -40.985400 0.000008 0.000006 5.091720 -4.866880 -51.197500 -11.754300 -0.000006 -0.000006 -0.020921 -0.172338 -23.615900
0.000000 0.000000 0.000000 0.000000 0.000000 -0.000000 4.555620 91.805400 -418.426000 86.628000 -0.194913 3.801760 15.735700 0.000005 -0.000001 71.800300 83.346100 -70.027900 8.984550 -0.406207 -0.000000 4.953900 -4.191690 3.723340 16.377300 -0.000001 -0.000001 1.695600 -2.042910 -0.026041 6.456720 -0.000001 -0.000000 1.560280 0.304420 -1.895300 12.994200 -0.242716 4.980390 -89.499200 -1.632840 -72.946900 5.348090 -0.000007 -0.000001 -58.276800 36.198000 -30.220200 24.328600 0.000019 0.000005 0.686813 1.035490 -33.558500 22.291600 -0.000001 0.000005 9.489910 5.526180 -7.627500 12.994500 -0.242716 -4.980390 88.623000 3.862560 -70.361700 -5.348130 -0.000001 -0.000004 -70.048700 25.834900 -2.998030 -24.328900 0.000322 -0.000009 2.148530 8.744010 -13.869100 -22.291500 -0.000108 -0.000004 9.058570 5.392780 -2.702710 -2.192480 -6.469440 -0.000000 -177.313000 -2.754550 2.659900 39.081100 -0.000007 -0.000012 -0.154571 0.393989 21.421400 40.985400 -0.000006 -0.000013 1.896110 -0.218027 -70.705600 11.754300 -0.000000 0.000003 -0.000021 -0.000268 -16.588100 -2.192510 6.469440 -0.000001 -176.927000 15.545600 157.172000 -39.081100 -0.002282 -0.040193 0.048587 -0.038431 49.713500 -40.985400 0.000008 0.000006 4.940790 -4.617200 -53.081900 -11.754300 -0.000006 -0.000006 -0.022581 -0.181186 -23.980900
0.000000 0.000000 0.000000 0.000000 0.000000 -0.000000 4.361100 91.500800 -415.449000 86.492100 0.831813 3.024070 15.735700 0.000005 -0.000001 68.716000 83.334000 -66.757500 8.984550 -0.406207 -0.000000 4.757070 -4.881870 4.117380 16.377300 -0.000001 -0.000001 1.686320 -2.215100 0.189465 6.456720 -0.000001 -0.000000 1.463160 0.459602 -1.611730 12.994200 -0.242716 4.980390 -89.504400 -1.639820 -73.179800 5.348090 -0.000007 -0.000001 -55.301000 35.107500 -33.918000 24.328600 0.000019 0.000005 0.674138 0.934486 -35.808800 22.291600 -0.000001 0.000005 10.018000 5.536380 -8.077310 12.994500 -0.242716 -4.980390 88.439100 4.254130 -69.830200 -5.348130 -0.000001 -0.000004 -69.494700 25.536200 -2.313660 -24.328900 0.000322 -0.000009 2.265280 9.092540 -14.059600 -22.291500 -0.000108 -0.000004 10.246600 5.403630 -3.056440 -2.192480 -6.469440 -0.000000 -176.701000 -3.248120 4.814280 39.081100 -0.000007 -0.000012 -0.145001 0.404008 19.743500 40.985400 -0.000006 -0.000013 2.397170 1.132690 -72.052900 11.754300 -0.000000 0.000003 -0.270485 -0.339483 -16.376300 -2.192510 6.469440 -0.000001 -175.438000 16.698000 156.367000 -39.081100 -0.002282 -0.040193 0.025341 -0.028706 37.537000 -40.985400 0.000008 0.000006 4.215930 -3.506270 -53.498100 -11.754300 -0.000006 -0.000006 -0.021788 -0.177000 -23.808200
0.000000 0.000000 0.000000 0.000000 0.000000 -0.000000 4.115470 90.883300 -412.350000 86.881800 1.734050 2.055610 15.735700 0.000005 -0.000001 65.712800 83.401200 -63.753300 8.984550 -0.406207 -0.000000 4.376540 -5.477380 4.126440 16.377300 -0.000001 -0.000001 1.699540 -2.384670 0.275539 6.456720 -0.000001 -0.000000 1.444020 0.571248 -1.430570 12.994200 -0.242716 4.980390 -89.512000 -1.639720 -73.423300 5.348090 -0.000007 -0.000001 -53.223200 33.713600 -36.485600 24.328600 0.000019 0.000005 0.799304 1.027070 -37.890800 22.291600 -0.000001 0.000005 10.822900 5.542720 -8.366340 12.994500 -0.242716 -4.980390 88.327500 4.454500 -69.396800 -5.348130 -0.000001 -0.000004 -69.364300 25.085400 -2.181590 -24.328900 0.000322 -0.000009 2.315900 9.785510 -13.391000 -22.291500 -0.000108 -0.000004 10.523200 5.396810 -2.834220 -2.192480 -6.469440 -0.000000 -176.700000 -3.920060 6.327140 39.081100 -0.000007 -0.000012 -0.082387 0.236324 19.219500 40.985400 -0.000006 -0.000013 4.250650 2.009080 -74.194300 11.754300 -0.000000 0.000003 -0.699056 -0.868660 -16.033900 -2.192510 6.469440 -0.000001 -174.510000 17.163700 156.158000 -39.081100 -0.002282 -0.040193 0.010392 -0.015836 24.082700 -40.985400 0.000008 0.000006 2.839290 -2.085380 -51.621500 -11.754300 -0.000006 -0.000006 -0.021039 -0.172977 -23.642300
0.000000 0.000000 0.000000 0.000000 0.000000 -0.000000 3.808670 90.164500 -409.033000 87.325600 2.504780 1.188450 15.735700 0.000005 -0.000001 63.118800 83.475300 -61.203800 8.984550 -0.406207 -0.000000 3.993650 -5.954750 4.036140 16.377300 -0.000001 -0.000001 1.803620 -2.539370 0.210091 6.456720 -0.000001 -0.000000 1.456300 0.657482 -1.340150 12.994200 -0.242716 4.980390 -89.535300 -1.587260 -73.679600 5.348090 -0.000007 -0.000001 -52.242000 32.189500 -37.750500 24.328600 0.000019 0.000005 0.859668 1.038130 -39.630200 22.291600 -0.000001 0.000005 11.599300 5.548590 -8.638760 12.994500 -0.242716 -4.980390 88.200100 4.744070 -69.195700 -5.348130 -0.000001 -0.000004 -69.453600 24.308700 -2.268600 -24.328900 0.000322 -0.000009 2.205770 10.275700 -12.190200 -22.291500 -0.000108 -0.000004 10.371000 5.385560 -2.473510 -2.192480 -6.469440 -0.000000 -176.687000 -4.573220 7.744200 39.081100 -0.000007 -0.000012 0.014713 -0.041955 19.324800 40.985400 -0.000006 -0.000013 6.343210 2.591710 -75.949400 11.754300 -0.000000 0.000003 -0.868609 -1.075460 -16.795000 -2.192510 6.469440 -0.000001 -173.660000 17.889500 156.321000 -39.081100 -0.002282 -0.040193 0.004229 -0.004404 11.456700 -40.985400 0.000008 0.000006 0.474925 1.609100 -49.036400 -11.754300 -0.000006 -0.000006 -0.020581 -0.170484 -23.539500
0.000000 0.000000 0.000000 0.000000 0.000000 -0.000000 3.351110 89.364200 -405.291000 87.988700 3.528620 0.476669 15.735700 0.000005 -0.000001 60.755300 83.559300 -58.955700 8.984550 -0.406207 -0.000000 3.594590 -6.350790 3.797590 16.377300 -0.000001 -0.000001 1.855080 -2.881330 0.082270 6.456720 -0.000001 -0.000000 1.523190 0.494531 -1.402060 12.994200 -0.242716 4.980390 -89.573000 -1.493660 -74.043100 5.348090 -0.000007 -0.000001 -52.020700 31.089200 -38.155700 24.328600 0.000019 0.000005 0.446563 0.517041 -40.819400 22.291600 -0.000001 0.000005 12.070900 5.556670 -9.023800 12.994500 -0.242716 -4.980390 88.042300 5.061440 -68.821900 -5.348130 -0.000001 -0.000004 -69.642300 23.752400 -2.366050 -24.328900 0.000322 -0.000009 2.061960 10.577500 -11.102400 -22.291500 -0.000108 -0.000004 10.105900 5.375560 -2.159190 -2.192480 -6.469440 -0.000000 -176.464000 -4.496920 8.140330 39.081100 -0.000007 -0.000012 0.010543 -0.026531 21.672600 40.985400 -0.000006 -0.000013 6.041890 3.611700 -76.003600 11.754300 -0.000000 0.000003 -2.017890 -2.394020 -19.539500 -2.192510 6.469440 -0.000001 -172.951000 19.506700 156.258000 -39.081100 -0.002282 -0.040193 0.002883 0.008022 3.332330 -40.985400 0.000008 0.000006 -3.924060 4.032350 -50.013800 -11.754300 -0.000006 -0.000006 -0.021203 -0.173863 -23.678800
0.000000 0.000000 0.000000 0.000000 0.000000 -0.000000 2.696920 88.552900 -401.091000 88.339800 4.428290 0.007681 15.735700 0.000005 -0.000001 59.110000 83.610600 -57.330100 8.984550 -0.406207 -0.000000 3.324770 -6.622200 3.751410 16.377300 -0.000001 -0.000001 1.774290 -2.998420 -0.085136 6.456720 -0.000001 -0.000000 1.563120 0.302466 -1.513200 12.994200 -0.242716 4.980390 -89.578400 -1.480340 -74.100800 5.348090 -0.000007 -0.000001 -52.572900 30.641200 -37.808000 24.328600 0.000019 0.000005 0.004452 0.005024 -41.332700 22.291600 -0.000001 0.000005 12.811700 5.561870 -9.278550 12.994500 -0.242716 -4.980390 87.945800 5.288870 -68.738200 -5.348130 -0.000001 -0.000004 -70.027800 23.726000 -2.434040 -24.328900 0.000322 -0.000009 1.967610 10.768500 -10.424100 -22.291500 -0.000108 -0.000004 9.997970 5.369100 -1.958850 -2.192480 -6.469440 -0.000000 -175.862000 -3.784170 8.579680 39.081100 -0.000007 -0.000012 -0.003184 0.006942 24.639000 40.985400 -0.000006 -0.000013 5.590290 4.307990 -74.848500 11.754300 -0.000000 0.000003 -2.647390 -2.871680 -23.315900 -2.192510 6.469440 -0.000001 -172.572000 18.030800 152.864000 -39.081100 -0.002282 -0.040193 -0.004523 0.055426 8.076090 -40.985400 0.000008 0.000006 1.534030 -0.657874 -54.290300 -11.754300 -0.000006 -0.000006 -0.022129 -0.178810 -23.882800
